<svg id="Layer_1" enable-background="new 0 0 128 128" height="512" viewBox="0 0 128 128" width="512" xmlns="http://www.w3.org/2000/svg"><g><g><g><path d="m124.097 66c0-7.684-5.49-14.107-12.752-15.561-4.798-13.939-15.845-24.986-29.784-29.783-1.454-7.263-7.877-12.753-15.561-12.753s-14.107 5.49-15.561 12.753c-13.939 4.797-24.986 15.844-29.783 29.783-7.263 1.454-12.753 7.877-12.753 15.561s5.49 14.107 12.752 15.561c4.798 13.939 15.845 24.986 29.784 29.783 1.454 7.263 7.876 12.753 15.561 12.753s14.107-5.49 15.561-12.753c13.939-4.797 24.986-15.844 29.784-29.784 7.262-1.453 12.752-7.876 12.752-15.56zm-58.097 26.353c-7.632 0-14.02 5.416-15.53 12.605-10.656-4.263-19.164-12.771-23.427-23.427 7.189-1.511 12.604-7.899 12.604-15.531s-5.416-14.02-12.605-15.53c4.263-10.656 12.771-19.164 23.427-23.427 1.511 7.189 7.899 12.604 15.531 12.604s14.02-5.416 15.53-12.605c10.656 4.263 19.164 12.771 23.427 23.427-7.189 1.511-12.604 7.899-12.604 15.531s5.416 14.02 12.605 15.53c-4.263 10.656-12.771 19.164-23.427 23.427-1.511-7.189-7.899-12.604-15.531-12.604z" fill="#e6e7e8"/></g><g><path d="m55.312 62.254c.256 0 .512-.098.707-.293.391-.39.391-1.023 0-1.414-3.458-3.459-3.458-9.088 0-12.547 1.676-1.675 3.904-2.598 6.273-2.598 2.37 0 4.598.923 6.273 2.598 2.938 2.939 3.437 7.601 1.184 11.084-.3.464-.167 1.083.297 1.383.465.3 1.083.166 1.383-.297 2.761-4.271 2.151-9.984-1.449-13.584-2.053-2.053-4.783-3.184-7.688-3.184-2.903 0-5.634 1.131-7.688 3.184-4.238 4.239-4.238 11.136 0 15.375.196.195.452.293.708.293z" fill="#e6e7e8"/></g><g><path d="m67.847 56.529c.072.016.146.023.217.023.459 0 .872-.318.976-.784.513-2.319-.184-4.704-1.86-6.381-1.306-1.305-3.041-2.024-4.887-2.024s-3.581.719-4.886 2.024c-1.677 1.677-2.372 4.062-1.861 6.381.118.539.653.881 1.191.761.54-.119.881-.652.762-1.192-.363-1.649.131-3.345 1.322-4.536.928-.927 2.16-1.438 3.472-1.438s2.545.511 3.473 1.438c1.191 1.192 1.686 2.887 1.321 4.536-.12.539.221 1.073.76 1.192z" fill="#e6e7e8"/></g><g><path d="m77.322 63.791c-.509-.041-1.007.031-1.468.196-.392-1.433-1.608-2.532-3.088-2.661-.994-.093-1.975.248-2.701.915-.051.046-.101.094-.147.143-.643-.661-1.541-1.072-2.533-1.072-.499 0-.982.108-1.422.305v-7.187c0-1.921-1.438-3.551-3.271-3.71-1.008-.092-2.006.251-2.744.929-.74.679-1.165 1.644-1.165 2.647v9.54c-.411-.203-.862-.326-1.336-.35-.991-.056-1.941.296-2.662.98-.711.675-1.119 1.625-1.119 2.605v8.282c0 7.42 6.037 13.458 13.457 13.458 7.421 0 13.458-6.037 13.458-13.458v-7.924c-.001-1.899-1.432-3.497-3.259-3.638z" fill="#e6e7e8"/></g></g><g><g id="XMLID_1_"><g><g><g><path d="m62 108.95c-25.889 0-46.95-21.062-46.95-46.95s21.061-46.95 46.95-46.95 46.95 21.061 46.95 46.95-21.061 46.95-46.95 46.95zm0-89.9c-23.683 0-42.95 19.268-42.95 42.95s19.267 42.95 42.95 42.95 42.95-19.267 42.95-42.95-19.267-42.95-42.95-42.95z" fill="#6dc9f7"/></g></g></g></g><g><g fill="#fa759e"><circle cx="62" cy="19.776" r="14.872"/><circle cx="62" cy="104.224" r="14.872"/></g><g><circle cx="104.224" cy="62" fill="#fa759e" r="14.872"/><path d="m106.618 56.644c-2.14-2.14-5.61-2.14-7.75 0s-2.14 5.61 0 7.75 5.61 2.14 7.75 0 2.141-5.61 0-7.75z" fill="#6dc9f7"/></g><path d="m62.811 100.224-.164.164c-.358.358-.937.358-1.295 0l-.164-.164c-1.529-1.529-4.012-1.777-5.68-.4-1.913 1.579-2.013 4.417-.301 6.129l.937.937 4.56 4.56c.715.715 1.874.715 2.589 0l4.561-4.561.937-.937c1.712-1.712 1.611-4.549-.301-6.129-1.666-1.375-4.15-1.128-5.679.401z" fill="#ffd7e5"/><g><circle cx="19.776" cy="62" fill="#fa759e" r="14.872"/><g><path d="m7.903 62c0-7.707 5.863-14.044 13.372-14.796-.493-.049-.994-.076-1.5-.076-8.214 0-14.872 6.659-14.872 14.872s6.658 14.872 14.872 14.872c.506 0 1.007-.026 1.5-.076-7.509-.752-13.372-7.089-13.372-14.796z" fill="#fff"/></g><path d="m23.992 57.58-5.795 5.795-2.638-2.638c-.933-.933-2.446-.933-3.379 0-.933.933-.933 2.446 0 3.379l2.638 2.638 2.275 2.275c.61.61 1.599.61 2.209 0l2.275-2.275 5.795-5.795c.933-.933.933-2.446 0-3.379-.934-.934-2.447-.934-3.38 0z" fill="#6dc9f7"/></g><g><path d="m69.62 18.268c-1.638-1.432-4.439-3.368-7.62-3.368s-5.983 1.936-7.62 3.368c-.915.8-.915 2.215 0 3.015 1.637 1.432 4.439 3.368 7.62 3.368s5.982-1.936 7.62-3.368c.915-.8.915-2.215 0-3.015z" fill="#fff"/><circle cx="62" cy="19.776" fill="#0089ef" r="3.75"/><circle cx="63.735" cy="18.989" fill="#fff" r="1.225"/></g><g><path d="m73.245 60.788c-.923-.071-1.744.357-2.241 1.038h-.016v-.847c0-1.337-.976-2.54-2.307-2.656-1.502-.131-2.761 1.05-2.761 2.524 0-1.4-1.135-2.534-2.534-2.534-1.152 0-2.114.774-2.422 1.827v-9.71c0-1.366-.998-2.596-2.359-2.715-1.535-.134-2.822 1.073-2.822 2.58v12.35c-.24-1.156-1.182-2.098-2.388-2.162-1.494-.078-2.73 1.11-2.73 2.587v8.282c0 6.88 5.577 12.457 12.457 12.457 6.88 0 12.457-5.577 12.457-12.457v-7.924c.001-1.343-.995-2.536-2.334-2.64z" fill="#ffd7e5"/><g fill="#3a2c60"><path d="m25.783 33.152c.288 0 .574-.124.772-.363.857-1.039 1.772-2.053 2.72-3.015.388-.394.384-1.027-.01-1.415-.394-.387-1.026-.383-1.414.01-.989 1.003-1.944 2.062-2.839 3.146-.352.426-.291 1.057.135 1.408.187.155.413.229.636.229z"/><path d="m120.097 62c0-7.691-5.5-14.117-12.772-15.564-4.799-13.931-15.83-24.97-29.762-29.767-1.449-7.269-7.874-12.766-15.563-12.766-7.69 0-14.116 5.499-15.563 12.77-5.643 1.942-10.925 4.919-15.531 8.851-.42.359-.47.99-.111 1.41.36.42.991.469 1.41.111 4.164-3.555 8.906-6.288 13.968-8.15-.016.293-.044.582-.044.879 0 .419.031.83.063 1.24-11.528 4.464-20.713 13.646-25.176 25.175-.41-.032-.821-.063-1.239-.063-.299 0-.591.028-.885.045 1.345-3.656 3.136-7.157 5.406-10.41.315-.453.205-1.076-.248-1.392-.453-.318-1.077-.206-1.393.248-2.569 3.681-4.576 7.656-6.009 11.823-7.26 1.458-12.745 7.879-12.745 15.56 0 7.689 5.497 14.114 12.766 15.563 4.797 13.932 15.836 24.963 29.767 29.762 1.446 7.272 7.873 12.772 15.563 12.772s14.117-5.5 15.563-12.772c13.931-4.799 24.97-15.83 29.767-29.762 7.271-1.449 12.768-7.874 12.768-15.563zm-14.984-15.827c-.296-.016-.588-.045-.888-.045-.418 0-.829.031-1.24.063-4.464-11.528-13.646-20.713-25.175-25.176.032-.41.063-.821.063-1.239 0-.298-.028-.588-.045-.882 12.615 4.647 22.636 14.667 27.285 27.279zm-43.113-40.27c7.649 0 13.872 6.223 13.872 13.872s-6.223 13.872-13.872 13.872-13.872-6.223-13.872-13.872 6.223-13.872 13.872-13.872zm-15.529 17.146c1.514 7.186 7.899 12.598 15.529 12.598 7.629 0 14.015-5.412 15.529-12.598 10.655 4.263 19.158 12.768 23.422 23.422-7.186 1.514-12.598 7.899-12.598 15.529 0 7.629 5.412 14.015 12.598 15.529-4.263 10.654-12.768 19.158-23.422 23.422-1.514-7.186-7.899-12.598-15.529-12.598s-14.015 5.412-15.529 12.598c-10.653-4.264-19.158-12.768-23.421-23.422 7.185-1.514 12.597-7.9 12.597-15.529s-5.412-14.015-12.597-15.529c4.263-10.654 12.768-19.158 23.421-23.422zm-40.568 38.951c0-7.649 6.223-13.872 13.872-13.872s13.872 6.223 13.872 13.872-6.223 13.872-13.872 13.872-13.872-6.223-13.872-13.872zm12.991 15.827c.294.016.584.045.882.045.418 0 .829-.031 1.239-.063 4.463 11.53 13.648 20.711 25.176 25.175-.032.41-.063.821-.063 1.24 0 .3.029.592.045.888-12.612-4.648-22.632-14.669-27.279-27.285zm43.106 40.27c-7.649 0-13.872-6.223-13.872-13.872s6.223-13.872 13.872-13.872 13.872 6.223 13.872 13.872-6.223 13.872-13.872 13.872zm15.827-12.984c.016-.296.045-.588.045-.888 0-.419-.031-.83-.063-1.24 11.528-4.464 20.713-13.646 25.176-25.175.41.032.821.063 1.239.063.298 0 .588-.028.882-.045-4.647 12.615-14.667 22.636-27.279 27.285zm26.398-29.241c-7.649 0-13.872-6.223-13.872-13.872s6.223-13.872 13.872-13.872 13.872 6.223 13.872 13.872-6.223 13.872-13.872 13.872z"/><path d="m107.973 64.335c.808-1.102 1.25-2.424 1.25-3.816 0-1.731-.674-3.358-1.898-4.582s-2.851-1.898-4.582-1.898-3.358.674-4.582 1.898c-1.225 1.224-1.898 2.851-1.898 4.582s.674 3.359 1.898 4.583 2.851 1.898 4.582 1.898c1.393 0 2.714-.443 3.816-1.25l3.92 3.92c.195.195.451.293.707.293s.512-.098.707-.293c.391-.391.391-1.024 0-1.414zm-8.398-.648c-.847-.846-1.313-1.972-1.313-3.168s.466-2.322 1.313-3.168c.846-.846 1.971-1.312 3.168-1.312s2.322.466 3.168 1.312c.847.846 1.313 1.972 1.313 3.168 0 1.197-.466 2.322-1.313 3.168-.846.846-1.971 1.312-3.168 1.312s-2.322-.466-3.168-1.312z"/><path d="m69.128 99.054c-2.016-1.665-5.102-1.46-7.023.464l-.105.104-.104-.104c-1.923-1.923-5.008-2.126-7.023-.464-1.12.926-1.803 2.284-1.871 3.727-.068 1.444.479 2.859 1.5 3.88l5.497 5.498c.552.552 1.276.828 2.001.828.726 0 1.45-.276 2.003-.828l5.497-5.498c1.021-1.021 1.568-2.436 1.5-3.88-.069-1.443-.752-2.802-1.872-3.727zm-1.043 6.193-5.497 5.497c-.324.324-.852.324-1.176 0l-5.497-5.498c-.624-.625-.958-1.489-.916-2.371.042-.895.449-1.705 1.146-2.28.548-.452 1.229-.673 1.924-.673.863 0 1.745.343 2.412 1.009l.164.164c.723.724 1.986.724 2.709 0l.164-.164c1.202-1.201 3.105-1.351 4.336-.336.697.576 1.104 1.386 1.146 2.28.043.883-.291 1.748-.915 2.372z"/><path d="m28.078 61.667c.641-.641.993-1.492.993-2.397s-.353-1.757-.993-2.397c-1.281-1.279-3.514-1.28-4.793 0l-5.089 5.088-1.93-1.931c-1.322-1.32-3.472-1.321-4.794 0-1.321 1.322-1.321 3.472 0 4.793l4.913 4.913c.483.484 1.127.75 1.812.75.684 0 1.327-.267 1.811-.75zm-10.278 6.655-4.913-4.913c-.541-.542-.541-1.423 0-1.965.271-.271.627-.407.983-.407.355 0 .711.136.982.406l2.637 2.638c.188.188.441.293.707.293s.52-.105.707-.293l5.796-5.795c.263-.262.611-.407.981-.407h.001c.371 0 .72.145.982.408.263.262.407.611.407.982s-.145.72-.407.982l-8.07 8.07c-.212.214-.58.213-.793.001z"/><path d="m62 25.65c3.425 0 6.393-1.965 8.278-3.614.653-.572 1.028-1.396 1.028-2.261s-.375-1.688-1.028-2.26c-1.885-1.649-4.852-3.615-8.278-3.615s-6.393 1.966-8.278 3.615c-.653.572-1.028 1.396-1.028 2.26 0 .865.375 1.689 1.028 2.261 1.885 1.649 4.853 3.614 8.278 3.614zm-6.962-6.629c1.628-1.424 4.157-3.121 6.962-3.121s5.334 1.697 6.962 3.121c.222.194.345.462.345.754s-.123.561-.345.755c-1.628 1.423-4.157 3.12-6.962 3.12s-5.334-1.697-6.962-3.12c-.222-.194-.345-.462-.345-.755 0-.292.123-.56.345-.754z"/><path d="m51.312 58.254c.256 0 .512-.098.707-.293.391-.39.391-1.023 0-1.414-3.458-3.459-3.458-9.088 0-12.547 1.676-1.675 3.904-2.598 6.273-2.598 2.37 0 4.598.923 6.273 2.598 2.938 2.939 3.437 7.601 1.184 11.084-.3.464-.167 1.083.297 1.383.465.3 1.083.166 1.383-.297 2.761-4.271 2.151-9.984-1.449-13.584-2.053-2.053-4.783-3.184-7.688-3.184-2.903 0-5.634 1.131-7.688 3.184-4.238 4.239-4.238 11.136 0 15.375.196.195.452.293.708.293z"/><path d="m63.847 52.529c.072.016.146.023.217.023.459 0 .872-.318.976-.784.513-2.319-.184-4.704-1.86-6.381-1.306-1.305-3.041-2.024-4.887-2.024s-3.581.719-4.886 2.024c-1.677 1.677-2.372 4.062-1.861 6.381.118.539.653.881 1.191.761.54-.119.881-.652.762-1.192-.363-1.649.131-3.345 1.322-4.536.928-.927 2.16-1.438 3.472-1.438s2.545.511 3.473 1.438c1.191 1.192 1.686 2.887 1.321 4.536-.12.539.221 1.073.76 1.192z"/><path d="m66.065 58.242c-.051.046-.101.094-.147.143-.643-.661-1.541-1.072-2.533-1.072-.499 0-.982.108-1.422.305v-7.188c0-1.921-1.438-3.551-3.271-3.71-1.008-.092-2.006.251-2.744.929-.74.679-1.165 1.644-1.165 2.647v9.54c-.411-.203-.862-.326-1.336-.35-.991-.056-1.941.296-2.662.98-.711.675-1.119 1.625-1.119 2.605v8.282c0 7.42 6.037 13.458 13.457 13.458 7.421 0 13.458-6.037 13.458-13.458v-7.924c0-1.898-1.431-3.497-3.258-3.638-.509-.041-1.007.031-1.468.196-.392-1.433-1.608-2.532-3.088-2.661-.995-.093-1.975.248-2.702.916zm3.922 2.737v.539.309 3.069c0 .552.447 1 1 1s1-.448 1-1v-2.666c.316-.309.74-.476 1.181-.444.792.061 1.412.783 1.412 1.644v7.924c0 6.318-5.14 11.458-11.458 11.458-6.317 0-11.457-5.14-11.457-11.458v-8.282c0-.441.176-.851.496-1.154.298-.283.684-.436 1.095-.436.028 0 .058 0 .087.002.683.036 1.263.573 1.439 1.31v7.886c0 .552.447 1 1 1s1-.448 1-1v-8.033-12.35c0-.451.184-.868.517-1.173.332-.306.767-.449 1.219-.411.811.07 1.445.825 1.445 1.718v9.71c0 .004.002.007.002.011v4.744c0 .552.447 1 1 1s1-.448 1-1v-4.563c.22-.609.773-1.019 1.42-1.019.846 0 1.534.688 1.534 1.534v4.048c0 .552.447 1 1 1s1-.448 1-1v-4.048c0-.435.177-.837.498-1.131.319-.294.732-.434 1.176-.397.782.067 1.394.796 1.394 1.659z"/></g></g></g></g></g></svg>